<?xml version="1.0" encoding="iso-8859-1"?>
<!-- Generator: Adobe Illustrator 19.0.0, SVG Export Plug-In . SVG Version: 6.00 Build 0)  -->
<svg version="1.1" id="Layer_1" xmlns="http://www.w3.org/2000/svg" xmlns:xlink="http://www.w3.org/1999/xlink" x="0px" y="0px"
	 viewBox="0 0 512 512" style="enable-background:new 0 0 512 512;" xml:space="preserve">
<circle style="fill:#C2001B;" cx="256" cy="256" r="256"/>
<path style="fill:#940030;" d="M503.327,189.755l-99.381-99.383L96.466,397.74l109.325,109.325C222.029,510.293,238.814,512,256,512
	c141.384,0,256-114.616,256-256C512,233.088,508.973,210.887,503.327,189.755z"/>
<path style="fill:#FFC61B;" d="M183.079,311.129L183.079,311.129c-12.266-12.266-11.624-32.342,1.402-43.799L386.377,89.757
	c5.072-4.46,12.736-4.215,17.511,0.56l0,0c4.775,4.775,5.022,12.44,0.56,17.511L226.878,309.725
	C215.421,322.751,195.344,323.394,183.079,311.129z"/>
<path style="fill:#EDB015;" d="M403.889,90.317c-0.391-0.391-0.809-0.741-1.236-1.072L182.472,310.456
	c0.209,0.221,0.39,0.457,0.605,0.672l0,0c12.266,12.266,32.342,11.623,43.799-1.402l177.574-201.899
	C408.91,102.757,408.666,95.092,403.889,90.317z"/>
<path style="fill:#FFEDB5;" d="M128.278,302.309c17.568-17.568,46.052-17.568,63.621,0c17.568,17.568,17.568,46.052,0,63.621
	c-17.568,17.568-95.432,31.81-95.432,31.81S110.709,319.878,128.278,302.309z"/>
<path style="fill:#FDE085;" d="M191.221,301.666L96.668,396.66c-0.131,0.695-0.202,1.077-0.202,1.077s77.862-14.241,95.43-31.81
	c17.568-17.568,17.568-46.052,0-63.619C191.676,302.089,191.445,301.882,191.221,301.666z"/>
<g>
</g>
<g>
</g>
<g>
</g>
<g>
</g>
<g>
</g>
<g>
</g>
<g>
</g>
<g>
</g>
<g>
</g>
<g>
</g>
<g>
</g>
<g>
</g>
<g>
</g>
<g>
</g>
<g>
</g>
</svg>
