<?xml version="1.0" encoding="iso-8859-1"?>
<!-- Generator: Adobe Illustrator 19.0.0, SVG Export Plug-In . SVG Version: 6.00 Build 0)  -->
<svg version="1.1" id="Layer_1" xmlns="http://www.w3.org/2000/svg" xmlns:xlink="http://www.w3.org/1999/xlink" x="0px" y="0px"
	 viewBox="0 0 512 512" style="enable-background:new 0 0 512 512;" xml:space="preserve">
<path style="fill:#00B4D7;" d="M256.113,429.722v74.315c117.312,0,212.329-95.017,212.329-212.329S373.424,79.379,256.113,79.379
	h-69.007V15.68L49.092,116.537l138.014,100.856v-63.699h69.007c76.226,0,138.014,61.788,138.014,138.014
	S332.339,429.722,256.113,429.722z"/>
<g>
	<path style="fill:#0093C4;" d="M256.113,121.845c76.226,0,138.014,61.788,138.014,138.014c0,5.394-0.387,10.692-0.989,15.925
		c-7.906-68.713-66.193-122.089-137.025-122.089h-76.969l-0.264-31.849C178.879,121.845,256.113,121.845,256.113,121.845z"/>
	<polygon style="fill:#0093C4;" points="187.106,217.393 49.092,116.537 70.883,100.612 187.106,185.544 	"/>
	<path style="fill:#0093C4;" d="M256.113,472.188c111.936,0,203.362-86.566,211.526-196.405c0.392,5.275,0.804,10.549,0.804,15.925
		c0,117.312-95.017,212.329-212.329,212.329V472.188z"/>
</g>
<path d="M256.113,512h-7.962v-90.24h7.962c71.711,0,130.052-58.341,130.052-130.052s-58.341-130.052-130.052-130.052h-61.045v71.417
	L35.596,116.537L195.068,0v71.417h61.045c58.864,0,114.191,22.908,155.787,64.505s64.505,96.922,64.505,155.787
	S453.496,405.899,411.9,447.495S314.977,512,256.113,512z M264.075,437.47v58.454c51.621-1.963,99.857-22.983,136.564-59.69
	c38.59-38.589,59.841-89.916,59.841-144.526s-21.252-105.937-59.841-144.526s-89.916-59.841-144.526-59.841h-76.969V31.361
	L62.587,116.537l116.556,85.176v-55.981h76.969c80.491,0,145.976,65.484,145.976,145.976
	C402.089,369.527,340.876,433.32,264.075,437.47z"/>
<rect x="120.749" y="58.151" transform="matrix(-0.6 -0.8 0.8 -0.6 127.5691 259.7092)" style="fill:#FFFFFF;" width="15.925" height="79.623"/>
<g>
</g>
<g>
</g>
<g>
</g>
<g>
</g>
<g>
</g>
<g>
</g>
<g>
</g>
<g>
</g>
<g>
</g>
<g>
</g>
<g>
</g>
<g>
</g>
<g>
</g>
<g>
</g>
<g>
</g>
</svg>
