<?xml version="1.0" encoding="iso-8859-1"?>
<!-- Generator: Adobe Illustrator 19.0.0, SVG Export Plug-In . SVG Version: 6.00 Build 0)  -->
<svg version="1.1" id="Layer_1" xmlns="http://www.w3.org/2000/svg" xmlns:xlink="http://www.w3.org/1999/xlink" x="0px" y="0px"
	 viewBox="0 0 512 512" style="enable-background:new 0 0 512 512;" xml:space="preserve">
<path style="fill:#FFC61B;" d="M256,415.494c-64.27,0-116.555-52.287-116.555-116.555c0-7.824,6.342-14.166,14.166-14.166
	c7.824,0,14.166,6.342,14.166,14.166c0,48.646,39.577,88.223,88.223,88.223s88.223-39.577,88.223-88.223
	c0-7.824,6.342-14.166,14.166-14.166s14.166,6.342,14.166,14.166C372.555,363.209,320.268,415.494,256,415.494z"/>
<path style="fill:#FEE187;" d="M213.09,157.28l65.114-63.357v-70.15c0-8.524-10.292-12.81-16.342-6.805L120.469,157.28
	l141.393,140.312c6.05,6.005,16.342,1.718,16.342-6.805v-70.15L213.09,157.28z"/>
<path style="fill:#FFC61B;" d="M292.37,88.993v-65.22C292.37,10.664,281.683,0,268.547,0c-6.254,0-12.171,2.455-16.663,6.912
	L110.489,147.224c-2.68,2.659-4.187,6.28-4.187,10.055s1.507,7.396,4.187,10.055l141.395,140.312
	c4.491,4.457,10.409,6.912,16.663,6.912c0,0,0,0,0.001,0c6.089,0,11.894-2.292,16.348-6.451c4.821-4.503,7.474-10.654,7.474-17.322
	v-70.15c0-3.825-1.546-7.487-4.287-10.153l-54.679-53.204l43.086-41.923c92.252,10.226,164.239,88.648,164.239,183.582
	c0,101.859-82.869,184.728-184.728,184.728S71.272,400.799,71.272,298.94c0-7.824-6.342-14.166-14.166-14.166
	S42.94,291.116,42.94,298.94C42.94,416.422,138.518,512,256,512s213.06-95.578,213.06-213.06
	C469.06,193.854,392.587,106.301,292.37,88.993z M264.038,87.942l-60.826,59.185c-2.741,2.666-4.287,6.328-4.287,10.153
	s1.546,7.487,4.287,10.153l60.826,59.185v53.176L140.579,157.28L264.038,34.766V87.942z"/>
<g>
</g>
<g>
</g>
<g>
</g>
<g>
</g>
<g>
</g>
<g>
</g>
<g>
</g>
<g>
</g>
<g>
</g>
<g>
</g>
<g>
</g>
<g>
</g>
<g>
</g>
<g>
</g>
<g>
</g>
</svg>
